<svg width="28" height="28" viewBox="0 0 28 28" fill="none" xmlns="http://www.w3.org/2000/svg">
<path d="M27.5673 7.34143C27.4874 7.22788 27.3815 7.1352 27.2584 7.07119C27.1353 7.00719 26.9986 6.97373 26.8599 6.97364H8.38008L6.98124 2.14465C6.43267 0.243129 5.12914 0.0378532 4.5945 0.0378532H0.864675C0.38661 0.0378532 0 0.425306 0 0.90341C0 1.38152 0.387045 1.76894 0.864648 1.76894H4.59404C4.71203 1.76894 5.07208 1.76894 5.31766 2.61837L10.1298 20.3222C10.2343 20.6957 10.5743 20.9537 10.9622 20.9537H22.7164C23.0812 20.9537 23.4069 20.7249 23.5301 20.381L27.6731 8.13202C27.7685 7.8666 27.7288 7.57111 27.5673 7.34143H27.5673ZM22.1079 19.2231H11.6185L8.8661 8.70519H25.6305L22.1079 19.2231ZM20.393 22.708C19.1905 22.708 18.2161 23.6833 18.2161 24.8871C18.2161 26.0909 19.1905 27.0662 20.393 27.0662C21.5955 27.0662 22.5698 26.0909 22.5698 24.8871C22.5698 23.6833 21.5955 22.708 20.393 22.708ZM12.5563 22.708C11.3538 22.708 10.3794 23.6833 10.3794 24.8871C10.3794 26.0909 11.3538 27.0662 12.5563 27.0662C13.7588 27.0662 14.7332 26.0909 14.7332 24.8871C14.7332 23.6833 13.7588 22.708 12.5563 22.708Z" fill="#97A4C3"/>
</svg>
