<svg width="50" height="50" viewBox="0 0 50 50" fill="none" xmlns="http://www.w3.org/2000/svg">
<path d="M25.0002 16.1743C22.6559 16.1743 20.4077 17.104 18.75 18.7589C17.0924 20.4138 16.1611 22.6583 16.1611 24.9986C16.1611 27.339 17.0924 29.5835 18.75 31.2384C20.4077 32.8932 22.6559 33.8229 25.0002 33.8229C27.3444 33.8229 29.5927 32.8932 31.2503 31.2384C32.9079 29.5835 33.8392 27.339 33.8392 24.9986C33.8392 22.6583 32.9079 20.4138 31.2503 18.7589C29.5927 17.104 27.3444 16.1743 25.0002 16.1743Z" fill="#97A4C3"/>
<path fill-rule="evenodd" clip-rule="evenodd" d="M10.776 0.784616C20.2298 -0.261539 29.7704 -0.261539 39.2241 0.784616C44.3888 1.36023 48.5527 5.41942 49.1592 10.5945C50.2803 20.1646 50.2803 29.8325 49.1592 39.4025C48.5527 44.5777 44.3888 48.6368 39.2268 49.2152C29.7722 50.2616 20.2307 50.2616 10.776 49.2152C5.6113 48.6368 1.44744 44.5776 0.840943 39.4052C-0.280314 29.8343 -0.280314 20.1655 0.840943 10.5945C1.44744 5.41942 5.6113 1.36023 10.776 0.784616ZM38.5986 8.70749C37.8773 8.70749 37.1855 8.99356 36.6754 9.50275C36.1654 10.0119 35.8789 10.7026 35.8789 11.4227C35.8789 12.1428 36.1654 12.8334 36.6754 13.3426C37.1855 13.8518 37.8773 14.1378 38.5986 14.1378C39.3199 14.1378 40.0117 13.8518 40.5217 13.3426C41.0317 12.8334 41.3183 12.1428 41.3183 11.4227C41.3183 10.7026 41.0317 10.0119 40.5217 9.50275C40.0117 8.99356 39.3199 8.70749 38.5986 8.70749ZM12.0815 24.9985C12.0815 21.578 13.4425 18.2976 15.8652 15.8789C18.2879 13.4603 21.5738 12.1015 25.0001 12.1015C28.4263 12.1015 31.7122 13.4603 34.1349 15.8789C36.5576 18.2976 37.9186 21.578 37.9186 24.9985C37.9186 28.4191 36.5576 31.6995 34.1349 34.1181C31.7122 36.5368 28.4263 37.8956 25.0001 37.8956C21.5738 37.8956 18.2879 36.5368 15.8652 34.1181C13.4425 31.6995 12.0815 28.4191 12.0815 24.9985Z" fill="#97A4C3"/>
</svg>
