<svg width="23" height="29" viewBox="0 0 23 29" fill="none" xmlns="http://www.w3.org/2000/svg">
<path d="M11.5 14.5H22M22 14.5L17.5 19M22 14.5L17.5 10M22 5.5V4C22 3.20435 21.6839 2.44129 21.1213 1.87868C20.5587 1.31607 19.7956 1 19 1H4C3.20435 1 2.44129 1.31607 1.87868 1.87868C1.31607 2.44129 1 3.20435 1 4V25C1 25.7956 1.31607 26.5587 1.87868 27.1213C2.44129 27.6839 3.20435 28 4 28H19C19.7956 28 20.5587 27.6839 21.1213 27.1213C21.6839 26.5587 22 25.7956 22 25V23.5" stroke="#97A4C3" stroke-width="1.5" stroke-linecap="round" stroke-linejoin="round"/>
</svg>
