<svg width="37" height="33" viewBox="0 0 37 33" fill="none" xmlns="http://www.w3.org/2000/svg">
<path fill-rule="evenodd" clip-rule="evenodd" d="M16.1393 4.19865C16.2874 4.55397 16.4042 4.91681 16.4899 5.28717C17.1613 5.09572 17.8552 5 18.5714 5C19.2401 5 19.8892 5.08342 20.5187 5.25026C20.6036 4.89268 20.7176 4.54216 20.8607 4.19865C21.2122 3.3549 21.6875 2.625 22.2864 2.00893C22.8854 1.39285 23.595 0.904022 24.4153 0.542404C25.2357 0.180801 26.0972 0 27 0C27.9028 0 28.7643 0.180801 29.5847 0.542404C30.405 0.904022 31.1146 1.39285 31.7136 2.00893C32.3125 2.625 32.7878 3.3549 33.1393 4.19865C33.4909 5.0424 33.6667 5.92857 33.6667 6.85715C33.6667 8.16965 33.3238 9.38393 32.638 10.5C33.046 10.625 33.4344 10.7946 33.8034 11.0089C34.1723 11.2232 34.5586 11.5491 34.9622 11.9866C35.3659 12.4241 35.7109 12.9397 35.9974 13.5335C36.2839 14.1272 36.5226 14.8951 36.7136 15.8371C36.9045 16.779 37 17.8348 37 19.0045C37 20.3795 36.566 21.5558 35.6979 22.5335C34.8298 23.5112 33.7839 24 32.5599 24H30.0032C30.0963 24.7468 30.1429 25.5477 30.1429 26.4025C30.1429 27.951 29.6406 29.2758 28.6362 30.3768C27.6317 31.4779 26.4213 32.0284 25.005 32.0284H12.1378C10.7216 32.0284 9.51117 31.4779 8.50671 30.3768C7.50226 29.2758 7 27.951 7 26.4025C7 25.5477 7.04651 24.7468 7.13959 24H4.44012C3.21613 24 2.17017 23.5112 1.30206 22.5335C0.434021 21.5558 0 20.3795 0 19.0045C0 17.8348 0.095459 16.779 0.286438 15.8371C0.477417 14.8951 0.716125 14.1272 1.00262 13.5335C1.28906 12.9397 1.63409 12.4241 2.03778 11.9866C2.44141 11.5491 2.8277 11.2232 3.19659 11.0089C3.56555 10.7946 3.95398 10.625 4.362 10.5C3.67621 9.38393 3.33331 8.16965 3.33331 6.85715C3.33331 5.92857 3.50909 5.0424 3.86066 4.19865C4.21222 3.3549 4.6875 2.625 5.28644 2.00893C5.88544 1.39285 6.59503 0.904022 7.41534 0.542404C8.23566 0.180801 9.09723 0 10 0C10.9028 0 11.7643 0.180801 12.5847 0.542404C13.405 0.904022 14.1146 1.39285 14.7136 2.00893C15.3125 2.625 15.7878 3.3549 16.1393 4.19865ZM29.6877 22.2857H32.5599C33.3238 22.2857 33.977 21.9665 34.5195 21.3281C35.0621 20.6897 35.3333 19.9152 35.3333 19.0045C35.3333 16.8705 34.9926 15.1875 34.3112 13.9554C33.6298 12.7232 32.6511 12.0759 31.375 12.0134C30.1163 13.1473 28.658 13.7143 27 13.7143C26.7381 13.7143 26.4812 13.7001 26.2293 13.6718C26.0942 14.7906 25.7162 15.8416 25.0954 16.8249C25.5675 16.9657 26.017 17.1567 26.4439 17.3981C26.8708 17.6394 27.3178 18.0064 27.7849 18.4991C28.252 18.9918 28.6512 19.5725 28.9827 20.2412C29.2549 20.7904 29.4899 21.4719 29.6877 22.2857ZM26.2476 11.9474C26.4914 11.9825 26.7422 12 27 12C28.3802 12 29.5586 11.4978 30.5352 10.4933C31.5117 9.48885 32 8.27678 32 6.85715C32 5.4375 31.5117 4.22545 30.5352 3.22098C29.5586 2.21652 28.3802 1.71428 27 1.71428C25.6198 1.71428 24.4414 2.21652 23.4648 3.22098C22.7261 3.9809 22.2667 4.85963 22.0869 5.85719C22.8173 6.23137 23.4636 6.69978 24.0257 7.26242C24.7188 7.95624 25.2687 8.77824 25.6755 9.72845C25.9807 10.4412 26.1714 11.1809 26.2476 11.9474ZM8.16016 20.2412C7.88788 20.7904 7.65289 21.4719 7.4552 22.2857H4.44012C3.67621 22.2857 3.02301 21.9665 2.48047 21.3281C1.93793 20.6897 1.66669 19.9152 1.66669 19.0045C1.66669 16.8705 2.00739 15.1875 2.68878 13.9554C3.37024 12.7232 4.34894 12.0759 5.625 12.0134C6.88367 13.1473 8.34204 13.7143 10 13.7143C10.3109 13.7143 10.6147 13.6944 10.9114 13.6545C11.0447 14.7797 11.4234 15.8365 12.0474 16.8249C11.5753 16.9657 11.1259 17.1567 10.6989 17.3981C10.272 17.6394 9.82507 18.0064 9.35797 18.4991C8.89093 18.9918 8.49164 19.5725 8.16016 20.2412ZM11.4673 9.72845C11.1653 10.4341 10.9753 11.166 10.8976 11.9243C10.6085 11.9748 10.3093 12 10 12C8.61981 12 7.44141 11.4978 6.46484 10.4933C5.48828 9.48885 5 8.27678 5 6.85715C5 5.4375 5.48828 4.22545 6.46484 3.22098C7.44141 2.21652 8.61981 1.71428 10 1.71428C11.3802 1.71428 12.5586 2.21652 13.5352 3.22098C14.2908 3.99826 14.7542 4.89986 14.925 5.92575C14.248 6.28807 13.6454 6.73364 13.1172 7.26242C12.4241 7.95624 11.8741 8.77824 11.4673 9.72845ZM18.5714 6.9306C16.9743 6.9306 15.6108 7.4962 14.4808 8.62741C13.3507 9.75862 12.7857 11.1236 12.7857 12.7224C12.7857 14.3212 13.3507 15.6862 14.4808 16.8174C15.6108 17.9486 16.9743 18.5142 18.5714 18.5142C20.1685 18.5142 21.5321 17.9486 22.6621 16.8174C23.7921 15.6862 24.3571 14.3212 24.3571 12.7224C24.3571 11.1236 23.7921 9.75862 22.6621 8.62741C21.5321 7.4962 20.1685 6.9306 18.5714 6.9306ZM25.005 30.0978C25.889 30.0978 26.6448 29.7383 27.2726 29.0194C27.9004 28.3004 28.2143 27.4281 28.2143 26.4025C28.2143 23.9993 27.82 22.1039 27.0316 20.7163C26.243 19.3287 25.1105 18.5997 23.6339 18.5293C22.1774 19.8063 20.4899 20.4448 18.5714 20.4448C16.6529 20.4448 14.9654 19.8063 13.5089 18.5293C12.0323 18.5997 10.8998 19.3287 10.1113 20.7163C9.32281 22.1039 8.92859 23.9993 8.92859 26.4025C8.92859 27.4281 9.24249 28.3004 9.87024 29.0194C10.498 29.7383 11.2539 30.0978 12.1378 30.0978H25.005Z" fill="#97A4C3"/>
</svg>
