<svg width="50" height="45" viewBox="0 0 50 45" fill="none" xmlns="http://www.w3.org/2000/svg">
<path d="M4.19105 2.59054C4.66751 2.53517 5.15005 2.61107 5.5865 2.81005C6.02295 3.00903 6.39672 3.32351 6.6674 3.7195C10.5517 9.40116 15.2149 11.7643 20.3913 12.3012C20.6439 10.088 21.2413 7.90114 22.365 5.9748C24.0124 3.14844 26.6914 1.06947 30.5177 0.301037C35.8073 -0.762136 39.8336 1.15368 42.1679 3.49845L46.8837 2.61686C47.3772 2.52439 47.8869 2.57502 48.3525 2.76278C48.8181 2.95053 49.2204 3.26756 49.5117 3.67647C49.803 4.08538 49.9713 4.56909 49.9966 5.07052C50.022 5.57195 49.9034 6.07017 49.6548 6.50638L45.1284 14.4591C45.5416 25.9356 42.3521 33.9462 35.552 39.4647C31.9467 42.3911 26.7835 44.0516 21.1176 44.5648C15.407 45.0806 8.95164 44.4569 2.53577 42.5832C1.98758 42.4233 1.50628 42.0894 1.1645 41.632C0.822721 41.1745 0.639008 40.6183 0.641087 40.0473C0.643167 39.4762 0.830927 38.9214 1.17603 38.4664C1.52113 38.0115 2.00485 37.6811 2.55419 37.5252C5.78055 36.6068 8.23848 35.8147 10.4569 34.4278C7.30162 32.7541 4.97791 30.5646 3.33315 28.0698C1.04891 24.6014 0.201526 20.7329 0.0331024 17.246C-0.135321 13.7591 0.367317 10.5275 0.898904 8.19851C1.20154 6.86955 1.55418 5.53795 2.04102 4.26425C2.21275 3.81527 2.50418 3.4219 2.88367 3.12684C3.26317 2.83178 3.7136 2.64631 4.19105 2.59054Z" fill="#8B9510"/>
</svg>
