<svg width="24" height="28" viewBox="0 0 24 28" fill="none" xmlns="http://www.w3.org/2000/svg">
<path d="M18.0954 11.8628C18.5675 12.0035 19.017 12.1946 19.4439 12.4359C19.8708 12.6772 20.3178 13.0443 20.7849 13.537C21.252 14.0297 21.6512 14.6104 21.9827 15.279C22.3142 15.9477 22.5904 16.8124 22.8114 17.8733C23.0324 18.9341 23.1429 20.1231 23.1429 21.4404C23.1429 22.9889 22.6406 24.3136 21.6362 25.4147C20.6317 26.5157 19.4213 27.0662 18.005 27.0662H5.13783C3.72154 27.0662 2.51116 26.5157 1.5067 25.4147C0.502232 24.3136 0 22.9889 0 21.4404C0 20.1231 0.110491 18.9341 0.331473 17.8733C0.552455 16.8124 0.828683 15.9477 1.16016 15.279C1.49163 14.6104 1.8909 14.0297 2.35798 13.537C2.82506 13.0443 3.27204 12.6772 3.69894 12.4359C4.12584 12.1946 4.57533 12.0035 5.04743 11.8628C4.25391 10.6059 3.85714 9.23837 3.85714 7.76025C3.85714 6.71451 4.06055 5.71653 4.46735 4.76631C4.87416 3.8161 5.42411 2.99408 6.11719 2.30027C6.81027 1.60647 7.63142 1.05594 8.58064 0.648707C9.52985 0.241471 10.5268 0.0378532 11.5714 0.0378532C12.6161 0.0378532 13.613 0.241471 14.5622 0.648707C15.5114 1.05594 16.3326 1.60647 17.0257 2.30027C17.7188 2.99408 18.2687 3.8161 18.6755 4.76631C19.0823 5.71653 19.2857 6.71451 19.2857 7.76025C19.2857 9.23837 18.889 10.6059 18.0954 11.8628ZM11.5714 1.96845C9.97433 1.96845 8.61077 2.53406 7.48075 3.66527C6.35073 4.79648 5.78571 6.16147 5.78571 7.76025C5.78571 9.35903 6.35073 10.724 7.48075 11.8552C8.61077 12.9864 9.97433 13.552 11.5714 13.552C13.1685 13.552 14.5321 12.9864 15.6621 11.8552C16.7921 10.724 17.3571 9.35903 17.3571 7.76025C17.3571 6.16147 16.7921 4.79648 15.6621 3.66527C14.5321 2.53406 13.1685 1.96845 11.5714 1.96845ZM18.005 25.1356C18.889 25.1356 19.6448 24.7762 20.2726 24.0572C20.9004 23.3383 21.2143 22.466 21.2143 21.4404C21.2143 19.0372 20.82 17.1418 20.0315 15.7541C19.243 14.3665 18.1105 13.6375 16.6339 13.5671C15.1775 14.8441 13.49 15.4826 11.5714 15.4826C9.6529 15.4826 7.9654 14.8441 6.50893 13.5671C5.03237 13.6375 3.89983 14.3665 3.11133 15.7541C2.32282 17.1418 1.92857 19.0372 1.92857 21.4404C1.92857 22.466 2.24247 23.3383 2.87026 24.0572C3.49805 24.7762 4.25391 25.1356 5.13783 25.1356H18.005Z" fill="#97A4C3"/>
</svg>
